<svg viewBox="0 0 65 64" fill="none" xmlns="http://www.w3.org/2000/svg"><path d="M49.56 15.215L26.738 8.991 9.967 25.76l6.224 22.823 22.823 6.225 16.77-16.771-6.224-22.823zM1.84 21.785l6.744 1.902 16.08-16.08L22.76.866l-20.92 20.92z" fill="#FF8400"/><path d="M.976 25.07l7.608 28.701 5.014-4.84-5.879-21.959L.976 25.07zM49.906 12.621l4.841-5.014L26.047 0l1.901 6.743 21.958 5.878z" fill="#CF4307"/><path d="M52.327 15.042l5.878 21.785 6.743 1.902-7.78-28.7-4.841 5.013zM16.018 51.35l-5.014 4.842 28.701 7.78-1.902-6.743-21.785-5.878z" fill="#FF8400"/><path d="M43.855 63.8l20.92-20.921-6.743-1.73-15.906 15.907 1.729 6.743z" fill="#CF4307"/></svg>